<svg id="visual" viewBox="0 0 900 600" width="900" height="600" xmlns="http://www.w3.org/2000/svg" xmlns:xlink="http://www.w3.org/1999/xlink" version="1.1"><rect x="0" y="0" width="900" height="600" fill="#F0FAFF"></rect><path d="M0 451L15 458C30 465 60 479 90 454.8C120 430.7 150 368.3 180 346C210 323.7 240 341.3 270 366.5C300 391.7 330 424.3 360 417.3C390 410.3 420 363.7 450 365.2C480 366.7 510 416.3 540 414.3C570 412.3 600 358.7 630 330.3C660 302 690 299 720 314.8C750 330.7 780 365.3 810 386.2C840 407 870 414 885 417.5L900 421L900 601L885 601C870 601 840 601 810 601C780 601 750 601 720 601C690 601 660 601 630 601C600 601 570 601 540 601C510 601 480 601 450 601C420 601 390 601 360 601C330 601 300 601 270 601C240 601 210 601 180 601C150 601 120 601 90 601C60 601 30 601 15 601L0 601Z" fill="#B06AB3" stroke-linecap="round" stroke-linejoin="miter"></path></svg>